<?xml version="1.0" standalone="no"?>
<!DOCTYPE svg PUBLIC "-//W3C//DTD SVG 20010904//EN"
 "http://www.w3.org/TR/2001/REC-SVG-20010904/DTD/svg10.dtd">
<svg version="1.0" xmlns="http://www.w3.org/2000/svg"
 width="100.000000pt" height="100.000000pt" viewBox="0 0 100.000000 100.000000"
 preserveAspectRatio="xMidYMid meet">

<g transform="translate(0.000000,100.000000) scale(0.100000,-0.100000)"
fill="#000000" stroke="none">
<path d="M72 848 c-7 -7 -12 -19 -12 -28 0 -8 99 -114 220 -235 l220 -220 220
220 c121 121 220 227 220 235 0 20 -20 40 -39 40 -9 0 -102 -87 -208 -192
l-193 -193 -193 193 c-106 105 -199 192 -208 192 -8 0 -20 -5 -27 -12z"/>
<path d="M72 588 c-7 -7 -12 -19 -12 -28 0 -8 99 -114 220 -235 l220 -220 220
220 c121 121 220 227 220 235 0 20 -20 40 -39 40 -9 0 -102 -87 -208 -192
l-193 -193 -193 193 c-106 105 -199 192 -208 192 -8 0 -20 -5 -27 -12z"/>
</g>
</svg>
